<svg aria-labelledby="Media Expert | Sklep internetowy RTV, AGD, komputery" data-v-662e7f1f="" data-v-729af534="" data-v-f7edc6e6="" fill="none" height="35" role="img" viewBox="0 0 251 35" width="252" xmlns="http://www.w3.org/2000/svg"><title data-v-729af534="">Media Expert</title> <desc data-v-729af534="">Media Expert</desc> <path d="M201.384 9.19257C201.308 9.14049 201.232 9.11445 201.156 9.11445C200.547 9.16653 199.608 9.40091 198.897 9.68736C197.983 10.104 197.044 10.7811 196.232 11.5363V9.45299C196.232 9.2707 196.105 9.14049 195.928 9.14049H190.395C190.243 9.14049 190.091 9.2707 190.091 9.45299V28.1509C190.091 28.3332 190.243 28.4634 190.395 28.4634H196.283C196.435 28.4634 196.588 28.3332 196.588 28.1509V15.8332C196.765 15.7551 197.019 15.6509 197.019 15.6509C197.527 15.4426 198.034 15.2082 198.897 15.0519C199.811 14.8957 200.648 14.8696 201.156 14.9217C201.232 14.9217 201.333 14.8957 201.384 14.8436C201.46 14.7655 201.486 14.6874 201.486 14.6092V9.42695C201.486 9.34882 201.46 9.24466 201.384 9.19257Z" data-v-729af534="" fill="white"></path> <path d="M146.006 27.9686C146.006 27.9686 139.534 18.6457 139.28 18.2811C139.534 17.9426 145.6 9.63527 145.6 9.63527C145.625 9.58319 145.651 9.50506 145.651 9.45298C145.651 9.4009 145.651 9.34881 145.625 9.29673C145.574 9.19256 145.473 9.14048 145.346 9.14048H139.255C139.153 9.14048 139.077 9.19257 139.001 9.27069C139.001 9.27069 136.006 13.7238 135.575 14.3749C135.144 13.7238 132.174 9.27069 132.174 9.27069C132.123 9.19257 132.022 9.14048 131.92 9.14048H125.398C125.296 9.14048 125.195 9.19256 125.144 9.29673C125.119 9.34881 125.093 9.4009 125.093 9.45298C125.093 9.50506 125.119 9.58319 125.17 9.63527C125.17 9.63527 131.514 18.0728 131.768 18.4113C131.514 18.8019 125.043 27.9686 125.043 27.9686C125.017 28.0207 124.992 28.0988 124.992 28.1509C124.992 28.203 124.992 28.255 125.017 28.3071C125.068 28.4113 125.195 28.4634 125.296 28.4634H131.667C131.793 28.4634 131.87 28.4113 131.946 28.3071C131.946 28.3071 135.042 23.203 135.499 22.4478C135.956 23.203 138.95 28.3071 138.95 28.3071C139.027 28.4113 139.103 28.4634 139.23 28.4634H145.752C145.879 28.4634 145.98 28.4113 146.031 28.3071C146.057 28.255 146.057 28.203 146.057 28.1509C146.057 28.0988 146.057 28.0207 146.006 27.9686Z" data-v-729af534="" fill="white"></path> <path d="M157.123 8.95837C156.387 9.06254 155.651 9.21879 154.966 9.45316C154.382 9.63545 153.798 9.89587 153.291 10.1823V9.45316C153.291 9.27087 153.164 9.14066 152.986 9.14066H147.453C147.301 9.14066 147.149 9.27087 147.149 9.45316V34.6875C147.149 34.8438 147.301 35 147.453 35H153.341C153.494 35 153.646 34.8438 153.646 34.6875V28.1511C154.026 28.2813 154.458 28.4115 154.839 28.4896C155.448 28.6198 156.184 28.724 157.123 28.7761V23.7761C156.742 23.8281 156.336 23.8542 155.905 23.8281C155.016 23.8021 154.128 23.5938 153.646 23.3854V14.8698C154.103 14.5834 154.61 14.375 155.118 14.2188C155.702 14.0625 156.463 13.9584 156.996 13.9584H157.123V8.95837ZM165.193 11.6927C163.747 9.92191 161.691 8.98441 159.077 8.88025C158.442 8.8542 157.783 8.88025 157.123 8.95837V13.9584C158.316 13.9844 159.153 14.375 159.788 15.1823C160.321 15.8854 160.6 17.0313 160.625 18.5938C160.625 20.2604 160.244 21.6146 159.534 22.5261C158.975 23.2031 158.163 23.6198 157.123 23.7761V28.7761H157.859C159.102 28.75 160.65 28.4375 161.615 28.0208C162.782 27.5 163.696 26.8229 164.533 25.9115C165.346 25 165.955 23.9844 166.412 22.7344C166.843 21.4844 167.097 19.8959 167.097 18.2292C167.097 15.599 166.412 13.2032 165.193 11.6927Z" data-v-729af534="" fill="white"></path> <path d="M214.403 23.9847C214.327 23.9066 214.225 23.8805 214.149 23.9066C213.997 23.9587 212.627 24.0628 212.322 24.0628C211.485 24.0889 210.901 24.0107 210.647 23.8545C210.342 23.6722 210.19 23.4899 210.038 23.1514C209.886 22.7868 209.86 22.266 209.86 21.8493L209.835 20.1566V14.1931H213.946C214.099 14.1931 214.251 14.0628 214.251 13.8806V9.81806C214.251 9.63577 214.099 9.50556 213.946 9.50556H209.733V4.0889C209.733 3.98473 209.708 3.90661 209.632 3.85452C209.556 3.7764 209.429 3.7764 209.353 3.80244L203.566 5.59931C203.439 5.62535 203.363 5.75556 203.363 5.88577V22.2399C203.363 24.7399 203.896 26.3024 205.14 27.3441C206.307 28.3337 208.084 28.8545 210.393 28.8545L213.033 28.6982L213.312 28.6722L214.276 28.516C214.429 28.4899 214.53 28.3597 214.53 28.2035V24.2191C214.53 24.1149 214.479 24.0368 214.403 23.9847Z" data-v-729af534="" fill="white"></path> <path d="M115.805 8.54137C112.937 8.64553 110.628 9.55699 108.8 11.3278C106.973 13.1507 105.983 15.7549 105.933 18.8799C105.907 22.0049 107.075 24.9476 108.953 26.5882C110.78 28.1507 112.861 28.8799 115.805 28.958V24.0622C114.968 23.932 114.333 23.6716 113.825 23.2809C113.293 22.8643 112.683 21.9007 112.531 20.5726H115.805V16.458H112.48C112.557 15.4164 113.013 14.2445 113.572 13.7497C114.257 13.1507 114.841 12.9164 115.805 12.8903V8.54137ZM115.805 28.958H116.719C118.901 28.932 120.729 28.6195 123.216 27.8903C123.343 27.8643 123.444 27.7341 123.444 27.5778V23.4632C123.444 23.3591 123.393 23.2549 123.317 23.2028C123.241 23.1507 123.14 23.1247 123.038 23.1507C121.236 23.7757 119.206 24.1143 118.089 24.1663C117.201 24.1924 116.44 24.1663 115.805 24.0622V28.958ZM123.064 11.1716C121.541 9.3747 119.384 8.54137 116.287 8.54137H115.805V12.8903H115.983C117.023 12.8903 117.708 13.1507 118.267 13.7757C118.698 14.2445 119.104 15.3643 119.104 16.432V16.458H115.805V20.5726H124.865C125.018 20.5726 125.17 20.4424 125.17 20.2601L125.246 18.5414V18.2289C125.246 15.182 124.561 12.9164 123.064 11.1716Z" data-v-729af534="" fill="white"></path> <path d="M178.34 8.54137C175.472 8.64553 173.188 9.55699 171.36 11.3278C169.508 13.1507 168.518 15.7549 168.493 18.8799C168.467 22.0049 169.635 24.9476 171.513 26.5882C173.34 28.1507 175.421 28.8799 178.34 28.958V24.0622C177.528 23.932 176.893 23.6716 176.386 23.2809C175.853 22.8643 175.244 21.9268 175.066 20.5726H178.34V16.458H175.04C175.091 15.4164 175.548 14.2445 176.132 13.7497C176.792 13.1507 177.375 12.9164 178.34 12.8903V8.54137ZM178.34 28.958H179.279C181.461 28.932 183.263 28.6195 185.776 27.8903C185.903 27.8643 186.004 27.7341 186.004 27.5778V23.4632C186.004 23.3591 185.953 23.2549 185.852 23.2028C185.776 23.1507 185.674 23.1247 185.598 23.1507C183.796 23.7757 181.766 24.1143 180.649 24.1663C179.736 24.1924 179 24.1663 178.34 24.0622V28.958ZM185.624 11.1716C184.075 9.3747 181.918 8.54137 178.822 8.54137H178.34V12.8903H178.543C179.558 12.8903 180.243 13.1507 180.827 13.7757C181.258 14.2445 181.664 15.3643 181.664 16.4059V16.458H178.34V20.5726H187.425C187.578 20.5726 187.73 20.4424 187.73 20.2601L187.806 18.5414V18.2028C187.806 15.182 187.096 12.9164 185.624 11.1716Z" data-v-729af534="" fill="white"></path> <path d="M82.5077 9.14049H76.6451C76.4674 9.14049 76.3405 9.27069 76.3405 9.45298V28.1509C76.3405 28.3332 76.4674 28.4634 76.6451 28.4634H82.5077C82.6853 28.4634 82.8376 28.3332 82.8376 28.1509V9.45298C82.8376 9.27069 82.6853 9.14049 82.5077 9.14049Z" data-v-729af534="" fill="#FFF001"></path> <path d="M62.6362 8.85426C62.4077 8.82822 62.1793 8.82822 61.9255 8.82822C60.6566 8.85426 59.1084 9.16676 58.144 9.60947C57.002 10.1043 56.0629 10.7813 55.2254 11.7188C54.4133 12.6043 53.8042 13.6459 53.3728 14.8699C52.9159 16.1199 52.6621 17.7084 52.6621 19.3751C52.6621 22.0053 53.3728 24.4011 54.591 25.9115C56.0122 27.6824 58.0679 28.6459 60.682 28.7501C61.3164 28.7761 61.9763 28.724 62.6362 28.6459V23.6719C61.4433 23.6459 60.6058 23.2553 59.9967 22.448C59.4384 21.7449 59.1592 20.573 59.1592 19.0105C59.1338 17.3438 59.5145 15.9897 60.2505 15.1043C60.8089 14.4272 61.5956 14.0105 62.6362 13.8543V8.85426ZM72.3056 2.63031H66.443C66.2654 2.63031 66.1385 2.76052 66.1385 2.94281V9.47926C65.7578 9.32301 65.301 9.1928 64.9203 9.11468C64.3112 9.01051 63.6006 8.8803 62.6362 8.85426V13.8543C63.0168 13.8022 63.4229 13.7761 63.8544 13.8022C64.7426 13.8022 65.6309 14.0365 66.1385 14.2449V22.7605C65.6563 23.0209 65.1487 23.2553 64.6411 23.3855C64.0828 23.5678 63.296 23.6719 62.763 23.6719H62.6362V28.6459C63.3975 28.5678 64.1335 28.4115 64.8188 28.1771C65.3771 27.9949 65.9608 27.7344 66.4684 27.448V28.1511C66.4684 28.3334 66.6207 28.4896 66.773 28.4896H72.3056C72.4833 28.4896 72.6102 28.3334 72.6102 28.1511V2.94281C72.6102 2.76052 72.4833 2.63031 72.3056 2.63031Z" data-v-729af534="" fill="#FFF001"></path> <path d="M41.3936 8.54137C38.5257 8.64553 36.2162 9.55699 34.3889 11.3278C32.5616 13.1507 31.5718 15.7549 31.5465 18.8799C31.5211 22.0049 32.6631 24.9476 34.5666 26.5882C36.3685 28.1507 38.4496 28.8799 41.3936 28.958V24.0622C40.5561 23.932 39.9216 23.6716 39.414 23.2809C38.9064 22.8643 38.2719 21.9268 38.1197 20.5726H41.3936V16.458H38.0689C38.1451 15.4164 38.6019 14.2445 39.1602 13.7497C39.8455 13.1507 40.4292 12.9164 41.3936 12.8903V8.54137ZM41.3936 28.958H42.3072C44.4898 28.932 46.3171 28.6195 48.8043 27.8903C48.9312 27.8643 49.0327 27.7341 49.0327 27.5778V23.4632C49.0327 23.3591 48.982 23.2549 48.9058 23.2028C48.8297 23.1507 48.7282 23.1247 48.6266 23.1507C46.8247 23.7757 44.7944 24.1143 43.6777 24.1663C42.7894 24.1924 42.0281 24.1663 41.3936 24.0622V28.958ZM48.652 11.1716C47.1293 9.3747 44.972 8.54137 41.8758 8.54137H41.3936V12.8903H41.5712C42.6118 12.8903 43.297 13.1507 43.8554 13.7757C44.2868 14.2445 44.6929 15.3643 44.6929 16.4059V16.458H41.3936V20.5726H50.454C50.6316 20.5726 50.7585 20.4424 50.7585 20.2601L50.8346 18.5414V18.2289C50.8346 15.182 50.1494 12.9164 48.652 11.1716Z" data-v-729af534="" fill="#FFF001"></path> <path d="M94.2069 15.833C93.7247 15.8851 93.1917 15.9632 92.6588 16.0153C91.0345 16.2497 89.6386 16.6143 88.5473 17.1091C87.4814 17.5778 86.5677 18.3591 85.8825 19.3486C85.1973 20.3382 84.9435 21.8226 84.9435 22.8643V22.9684C84.9435 24.2445 85.2227 25.9632 86.6185 27.2653C87.7859 28.3591 89.2833 28.932 91.1868 28.958C92.2019 28.984 93.2171 28.8799 94.2069 28.6455V24.2966C93.9785 24.3486 93.7501 24.3747 93.5216 24.4007C92.5572 24.4268 91.8974 24.2705 91.4659 23.4632C91.339 23.2549 91.2629 22.9424 91.2629 22.5778C91.2629 22.1091 91.3644 21.6143 91.6943 21.1455C92.0497 20.6507 92.8618 20.208 93.9785 19.9216C94.0546 19.8955 94.1307 19.8955 94.2069 19.8695V15.833ZM94.2069 8.59345C93.0141 8.61949 91.7705 8.7497 90.5015 8.95804L87.9382 9.50491L87.4814 9.60908C87.3545 9.63512 87.2276 9.76533 87.2276 9.89553V13.8799C87.2276 13.958 87.2784 14.0622 87.3545 14.1143C87.456 14.1924 87.5575 14.1924 87.6337 14.1664C88.0651 14.0101 89.1818 13.6195 90.5015 13.3851C91.3137 13.2289 92.3288 13.1247 93.344 13.0987C93.6485 13.0987 93.9531 13.0987 94.2069 13.1247V8.59345ZM103.597 16.1455C103.521 13.4893 102.684 11.3799 101.262 10.2341C100.374 9.55699 99.2827 9.08824 97.8615 8.82783C96.8209 8.64554 95.6281 8.56741 94.2069 8.59345V13.1247C95.1205 13.1507 95.7804 13.333 96.2626 13.6716C96.8463 14.0362 97.1255 14.6872 97.1762 15.5726C96.1865 15.6507 95.222 15.7289 94.2069 15.833V19.8695C94.9936 19.6872 96.0088 19.557 97.1762 19.4528V22.9684C96.7448 23.307 95.5266 24.0622 94.2069 24.2966V28.6455C94.8414 28.5153 95.4758 28.307 96.0849 28.0726C96.0849 28.0726 96.9986 27.6299 97.5316 27.3955V28.1507C97.5316 28.333 97.6584 28.4632 97.8361 28.4632H103.293C103.445 28.4632 103.597 28.333 103.597 28.1507C103.597 28.0466 103.648 18.5414 103.597 16.1455Z" data-v-729af534="" fill="#FFF001"></path> <path d="M28.1963 10.6769C27.3334 9.66132 26.1152 9.03632 24.5163 8.82799L24.161 8.77591C24.1356 8.77591 23.9833 8.74987 23.9833 8.74987L23.425 8.72382C21.9784 8.72382 20.6079 9.01028 19.3643 9.53111C18.5776 9.86966 17.5624 10.5467 17.0548 10.9113C16.4711 10.0259 15.6336 9.37486 14.4915 9.03632C13.9332 8.88007 13.3241 8.77591 12.5881 8.74987C11.2937 8.69778 9.64409 8.93216 8.57817 9.32278C7.89293 9.55716 7.03003 9.97382 6.14176 10.5988V9.45299C6.14176 9.2707 5.98949 9.14049 5.83721 9.14049H0.30455C0.126895 9.14049 0 9.2707 0 9.45299V28.1509C0 28.3332 0.126895 28.4634 0.30455 28.4634H6.19252C6.3448 28.4634 6.49707 28.3332 6.49707 28.1509V15.078C7.03003 14.7134 8.09596 14.1926 9.11113 14.0884C9.84712 14.0363 10.4308 14.1665 10.8369 14.5311C11.4714 15.078 11.5222 16.0415 11.5729 16.4582C11.5729 16.5363 11.6237 18.8019 11.6237 18.8019V28.1509C11.6237 28.3332 11.7759 28.4634 11.9282 28.4634H17.7654C17.9431 28.4634 18.07 28.3332 18.07 28.1509V15.078C18.6029 14.7134 19.6943 14.1926 20.7094 14.0884C21.4454 14.0363 22.0291 14.1665 22.4352 14.5311C23.0697 15.078 23.1204 16.0415 23.1458 16.4582C23.1458 16.5363 23.222 18.8019 23.222 18.8019V28.1509C23.222 28.3332 23.3489 28.4634 23.5265 28.4634H29.4399C29.5921 28.4634 29.7444 28.3332 29.7444 28.1509V15.9894C29.7444 13.5676 29.2622 11.9269 28.1963 10.6769Z" data-v-729af534="" fill="#FFF001"></path> <path d="M83.802 4.06234L79.9444 0.104014C79.8936 0.0519314 79.8175 -0.000152588 79.7414 -0.000152588C79.6399 -0.000152588 79.5637 0.0519314 79.513 0.104014L75.6553 4.06234C75.5284 4.19255 75.5284 4.37484 75.6553 4.50505L79.513 8.46338C79.5637 8.51546 79.6399 8.5415 79.7414 8.5415C79.8175 8.5415 79.8936 8.51546 79.9444 8.46338L83.802 4.50505C83.9289 4.37484 83.9289 4.19255 83.802 4.06234Z" data-v-729af534="" fill="white"></path> <path d="M251 17.4475C251 25.5724 244.554 32.187 236.61 32.187C228.666 32.187 222.22 25.5724 222.22 17.4475C222.22 9.29642 228.666 2.68185 236.61 2.68185C244.554 2.68185 251 9.29642 251 17.4475Z" data-v-729af534="" fill="#FFF200"></path> <path d="M251 17.4475C251 25.5724 244.554 32.187 236.61 32.187C228.666 32.187 222.22 25.5724 222.22 17.4475C222.22 9.29642 228.666 2.68185 236.61 2.68185C244.554 2.68185 251 9.29642 251 17.4475Z" data-v-729af534="" fill="#FFF200"></path> <path d="M244.122 17.1023C244.122 16.5345 243.894 16.0441 243.488 15.7086L235.036 8.27556C234.503 7.78518 233.767 7.70776 233.133 8.04328C232.549 8.35299 232.168 8.97241 232.168 9.66925V17.1023V24.5095C232.168 25.2064 232.549 25.8258 233.133 26.1355C233.767 26.471 234.503 26.3678 235.036 25.9032L243.488 18.4702C243.894 18.1347 244.122 17.6185 244.122 17.1023Z" data-v-729af534="" fill="#0D0B0B"></path></svg>